<?xml version="1.0" encoding="UTF-8" standalone="no"?>
<svg
   xmlns:dc="http://purl.org/dc/elements/1.1/"
   xmlns:cc="http://creativecommons.org/ns#"
   xmlns:rdf="http://www.w3.org/1999/02/22-rdf-syntax-ns#"
   xmlns:svg="http://www.w3.org/2000/svg"
   xmlns="http://www.w3.org/2000/svg"
   xmlns:sodipodi="http://sodipodi.sourceforge.net/DTD/sodipodi-0.dtd"
   xmlns:inkscape="http://www.inkscape.org/namespaces/inkscape"
   version="1.1"
   id="svg4149"
   viewBox="0 0 130 85.000002"
   height="85"
   width="130"
   inkscape:version="0.91 r13725"
   sodipodi:docname="kromerizOnMapB.svg">
  <sodipodi:namedview
     pagecolor="#ffffff"
     bordercolor="#666666"
     borderopacity="1"
     objecttolerance="10"
     gridtolerance="10"
     guidetolerance="10"
     inkscape:pageopacity="0"
     inkscape:pageshadow="2"
     inkscape:window-width="1366"
     inkscape:window-height="716"
     id="namedview9"
     showgrid="false"
     units="px"
     inkscape:zoom="5.49"
     inkscape:cx="63.147643"
     inkscape:cy="36.404608"
     inkscape:window-x="-8"
     inkscape:window-y="-8"
     inkscape:window-maximized="1"
     inkscape:current-layer="layer4" />
  <defs
     id="defs4151" />
  <metadata
     id="metadata4154">
    <rdf:RDF>
      <cc:Work
         rdf:about="">
        <dc:format>image/svg+xml</dc:format>
        <dc:type
           rdf:resource="http://purl.org/dc/dcmitype/StillImage" />
        <dc:title></dc:title>
      </cc:Work>
    </rdf:RDF>
  </metadata>
  <g
     transform="translate(-128.94141,-897.657)"
     id="layer2" />
  <g
     inkscape:groupmode="layer"
     id="layer3"
     inkscape:label="Layer 2">
    <circle
       transform="matrix(0.22756781,0,0,0.22756781,-29.50713,-143.92252)"
       r="8.4747438"
       cy="879.80585"
       cx="578.57141"
       id="path4149"
       style="fill:#ffffff;fill-opacity:1;stroke:none;stroke-opacity:1;stroke-width:1.44132863;stroke-miterlimit:4;stroke-dasharray:none;opacity:1;fill-rule:nonzero;stroke-linejoin:round" />
  </g>
  <g
     inkscape:groupmode="layer"
     id="layer4"
     inkscape:label="Layer 3">
    <g
       transform="matrix(0.22592014,0,0,0.22592014,-28.748129,-142.30353)"
       id="layer1"
       style="fill:#ffffff;fill-opacity:1;stroke:#ffffff;stroke-width:4.07790518;stroke-miterlimit:4;stroke-dasharray:none;stroke-opacity:1">
      <path
         id="path4138"
         d="m 311.92714,978.92808 c -1.81894,-0.98843 -6.53365,-2.00059 -10.47715,-2.24931 -6.02513,-0.37985 -7.79823,-1.0803 -11.10447,-4.38649 -3.32919,-3.32921 -3.6833,-4.2372 -2.30171,-5.90185 1.30547,-1.573 1.31789,-2.34683 0.062,-3.86007 -0.86394,-1.04103 -2.24675,-1.89269 -3.07291,-1.89269 -0.82617,0 -3.13409,-1.70341 -5.12873,-3.78537 -1.99464,-2.08195 -4.63374,-3.78537 -5.86466,-3.78537 -1.42809,0 -3.74006,-2.72092 -6.38833,-7.51815 -2.61983,-4.74574 -5.08087,-7.65382 -6.67387,-7.88619 -1.41235,-0.20602 -3.49147,-2.31271 -4.72166,-4.7843 -1.20892,-2.429 -3.1828,-5.14064 -4.38635,-6.02591 -1.85503,-1.36455 -2.50483,-1.19002 -4.26679,1.14581 l -2.07851,2.75554 -4.26035,-2.97772 c -5.33273,-3.72733 -6.10965,-4.84265 -6.13372,-8.80538 -0.0256,-4.21559 -6.99197,-12.57851 -10.52095,-12.63006 -3.18259,-0.0465 -7.16339,-2.73561 -7.16339,-4.83904 0,-0.79556 -1.41952,-2.68072 -3.15449,-4.18926 -1.73496,-1.50852 -3.15448,-3.39311 -3.15448,-4.18796 0,-0.79486 -1.41951,-2.77876 -3.15447,-4.40868 -1.73496,-1.62992 -3.15448,-3.9589 -3.15448,-5.17552 0,-3.08354 -6.17105,-7.61963 -10.03568,-7.37683 -7.51536,0.47213 -8.88352,-0.10814 -12.25005,-5.19527 -1.86707,-2.82134 -4.99807,-5.95885 -6.95775,-6.97225 -3.09996,-1.60305 -3.56307,-2.57254 -3.56307,-7.4591 0,-4.59863 -0.5717,-5.99115 -3.15447,-7.68346 -2.13304,-1.3976 -3.15451,-3.22154 -3.15451,-5.63267 0,-1.96118 -0.5678,-3.91671 -1.26179,-4.34562 -0.69398,-0.4289 -1.26179,-2.16731 -1.26179,-3.86312 0,-1.99601 -1.77981,-4.69125 -5.04716,-7.64309 -2.77594,-2.5079 -5.04716,-5.03575 -5.04716,-5.61743 0,-0.58169 1.41951,-2.47712 3.15447,-4.21208 1.73497,-1.73496 3.15822,-4.17395 3.1628,-5.41997 0.004,-1.24602 1.13644,-3.9689 2.51526,-6.05085 3.01999,-4.56004 3.21691,-7.66559 0.55093,-8.68863 -1.08497,-0.41634 -1.67097,-1.24515 -1.30222,-1.8418 1.12721,-1.82387 -2.05033,-4.91345 -9.8283,-9.5563 -8.6094,-5.13913 -14.10301,-12.26576 -13.55111,-17.57931 0.26223,-2.52467 -0.81935,-5.08226 -3.6264,-8.57526 -3.053,-3.79907 -3.66977,-5.37558 -2.60496,-6.6586 0.96613,-1.16411 1.0084,-2.69822 0.13745,-4.98898 -1.22739,-3.22827 -1.1359,-3.30796 3.79784,-3.30796 3.65797,0 5.28458,0.61043 5.88409,2.20814 0.45569,1.21447 1.68492,2.84979 2.7316,3.63406 1.04669,0.78426 2.5838,3.62329 3.41582,6.30895 1.2949,4.17981 1.5318,4.40556 1.64506,1.56759 0.0728,-1.82348 1.01681,-4.0495 2.09788,-4.94671 1.08108,-0.8972 2.75552,-3.52186 3.72099,-5.83255 0.96547,-2.3107 2.38113,-4.20127 3.14591,-4.20127 0.76478,0 3.22899,-2.00682 5.47603,-4.45959 3.75262,-4.09621 4.72191,-4.48177 11.89562,-4.73171 4.6265,-0.1612 8.04988,-0.88302 8.39831,-1.7708 0.3235,-0.82426 2.74885,-2.0987 5.38965,-2.83208 4.11978,-1.1441 5.28685,-0.97611 8.2203,1.18322 5.4802,4.03404 9.82996,2.54308 9.82996,-3.36938 0,-3.68768 3.45191,-5.47009 10.59364,-5.47009 5.60884,0 5.73733,-0.0927 7.08893,-5.11214 1.46577,-5.44343 4.01184,-7.39771 6.71504,-5.15424 1.28008,1.06237 2.04161,0.38225 3.37391,-3.01331 1.97505,-5.03364 5.10882,-5.71105 7.78364,-1.68254 1.53352,2.3096 2.19842,2.48671 4.57017,1.21739 1.84857,-0.98933 2.77556,-2.66953 2.77556,-5.03085 0,-3.88454 4.06334,-8.47887 6.28471,-7.106 0.76812,0.47473 2.21618,0.18292 3.21792,-0.64845 1.00173,-0.83136 2.6389,-1.19785 3.63814,-0.81441 0.99923,0.38344 3.57366,0.034 5.72095,-0.77649 3.0763,-1.16117 4.46946,-1.12063 6.57002,0.19119 3.09773,1.93456 4.79862,0.32894 4.8319,-4.56126 0.0126,-1.80397 0.78815,-2.83902 2.1281,-2.83902 1.15983,0 3.1789,-0.96845 4.48686,-2.15212 1.90541,-1.7244 2.84575,-1.86005 4.73116,-0.6826 1.92914,1.20477 3.17687,0.91051 6.92531,-1.63324 2.5147,-1.70653 5.64433,-3.10279 6.95471,-3.10279 1.31038,0 2.75972,-1.18847 3.22076,-2.64105 0.70037,-2.20671 1.51655,-2.51381 4.96281,-1.86729 2.26851,0.42557 5.05248,0.41769 6.18663,-0.0176 2.8067,-1.07703 2.60343,-3.96478 -0.34494,-4.90056 -1.32387,-0.42018 -2.72556,-1.59405 -3.11488,-2.60861 -0.38933,-1.01456 -1.54389,-1.84466 -2.56568,-1.84466 -3.07286,0 -3.42406,-2.08384 -1.26193,-7.48757 2.29317,-5.73118 2.848,-5.94721 8.18552,-3.18707 2.51651,1.30134 5.23269,1.6666 8.22245,1.10571 3.79572,-0.71208 5.01922,-0.30621 8.16649,2.70907 2.63602,2.52546 3.70189,4.75022 3.70189,7.72683 0,3.0204 0.56987,4.18019 2.05395,4.18019 1.686,0 1.91087,0.89477 1.2553,4.99457 -0.79486,4.97078 -0.77382,5.00201 4.42013,6.55815 4.8156,1.44279 5.38747,1.35527 7.40227,-1.13292 1.57389,-1.94367 3.89157,-2.80586 8.30152,-3.08822 5.97705,-0.38271 6.14094,-0.50274 7.11301,-5.20974 0.5854,-2.83462 0.47817,-5.78372 -0.26047,-7.16388 -0.69052,-1.29024 -0.91099,-3.24363 -0.48993,-4.34087 1.03512,-2.6975 6.62958,-3.94606 9.53922,-2.12895 1.63718,1.02244 3.08913,1.08618 4.7306,0.2077 1.78125,-0.9533 2.54624,-0.80405 3.0858,0.60205 0.39459,1.02827 1.78286,1.86958 3.08506,1.86958 3.69819,0 6.34593,3.91355 6.1874,9.14542 -0.11281,3.7213 0.71671,5.61646 3.89208,8.89261 2.21945,2.2899 4.03537,5.13007 4.03537,6.3115 0,2.26704 1.90111,2.91429 3.05863,1.04135 0.88083,-1.4252 15.38008,2.45391 20.51931,5.48973 3.43754,2.0306 4.45176,2.12013 7.88889,0.69643 2.16932,-0.89857 4.08481,-1.41537 4.25663,-1.14846 0.17181,0.2669 1.30844,2.67413 2.52585,5.3494 2.08654,4.58525 2.46095,4.8177 6.53048,4.05425 3.91353,-0.73418 4.50844,-0.43978 6.36458,3.14961 l 2.04753,3.9595 3.0092,-2.827 c 2.85523,-2.68235 3.17073,-2.72115 6.16621,-0.75844 3.9269,2.57301 5.76937,2.62917 5.76937,0.17587 0,-1.37147 1.41015,-1.89269 5.12061,-1.89269 4.32284,0 6.03929,0.868 11.01731,5.57139 5.54415,5.23829 5.77388,5.70978 3.84219,7.88619 -1.12998,1.27314 -2.2627,3.44952 -2.51713,4.83641 -0.25443,1.38688 -2.44232,3.48363 -4.86197,4.65943 -2.41966,1.17581 -6.05656,3.49918 -8.08199,5.16305 -3.57371,2.93575 -3.61953,3.11517 -1.54933,6.06578 1.49164,2.126 3.33775,3.04057 6.1376,3.04057 3.22971,0 4.1496,0.61018 4.75552,3.15447 0.46771,1.96393 1.78321,3.30404 3.48557,3.55074 1.50389,0.21795 3.85709,2.21293 5.22935,4.43328 1.37225,2.22036 3.95121,5.30317 5.73101,6.85069 1.90563,1.6569 3.23602,4.14808 3.23602,6.05944 0,4.72458 1.9101,7.56675 6.31012,9.38932 3.51689,1.45673 4.17575,1.33334 6.98808,-1.30869 1.70779,-1.6044 3.10507,-4.13312 3.10507,-5.61941 0,-2.07139 1.55241,-3.34579 6.64879,-5.45812 3.65683,-1.51567 7.63147,-2.75576 8.83253,-2.75576 3.511,0 2.83897,-6.06452 -0.85872,-7.7493 -2.02191,-0.92124 -3.31451,-2.83629 -3.85345,-5.70907 -0.54308,-2.89487 -1.83048,-4.78735 -3.89737,-5.72909 -3.69485,-1.6835 -3.78497,-2.38252 -0.78473,-6.08765 2.19986,-2.71671 2.60453,-2.77162 9.14798,-1.24111 3.76547,0.88074 8.83363,2.46287 11.26257,3.51584 2.42895,1.05297 5.5606,1.80928 6.95923,1.68071 1.78147,-0.16377 2.97662,0.91517 3.9912,3.6031 1.23117,3.26171 2.10622,3.83687 5.83735,3.83687 3.62936,0 4.52612,0.54601 5.1808,3.15448 0.71628,2.85388 2.94543,3.95366 6.42171,3.16823 0.69398,-0.1568 4.38472,-0.24789 8.20163,-0.20244 6.05988,0.0722 7.298,-0.35062 9.76435,-3.33425 2.30657,-2.79034 3.23209,-3.16219 5.04716,-2.02785 1.22247,0.76398 2.39831,2.85169 2.61301,4.63937 0.2147,1.78767 1.20835,3.9292 2.20813,4.75896 3.7235,3.09022 2.11385,6.3388 -4.53212,9.14663 -7.1169,3.00681 -7.95976,6.13324 -1.93697,7.18474 2.77614,0.48469 4.39605,2.02276 6.65487,6.31868 1.64205,3.12293 4.10052,6.19069 5.46326,6.81721 1.36273,0.62655 2.4777,1.55946 2.4777,2.07315 0,1.44947 3.56774,2.47007 5.73181,1.63964 1.07054,-0.4108 3.06939,-2.94811 4.44191,-5.63845 1.85492,-3.63595 3.27548,-4.89155 5.53419,-4.89155 3.69856,0 7.00432,3.06742 7.00432,6.49933 0,2.12722 0.57505,2.40741 3.58432,1.74647 2.45588,-0.5394 4.09348,-0.17372 5.20165,1.16153 0.88955,1.07183 2.41735,1.94878 3.39514,1.94878 0.97779,0 2.08816,0.80882 2.46751,1.79739 0.47157,1.22893 1.95556,1.60461 4.69211,1.18788 2.58273,-0.39331 5.77197,0.3101 8.99134,1.98311 3.31306,1.72171 5.41117,2.17039 6.24586,1.3357 1.85133,-1.85133 4.53757,-1.52831 4.53757,0.54564 0,0.99141 0.84929,2.65187 1.88734,3.68991 1.34815,1.34815 1.57239,2.72568 0.78491,4.82183 -0.78991,2.10263 -0.43071,4.26161 1.26714,7.61595 1.30326,2.5748 2.36956,5.43129 2.36956,6.34776 0,1.64804 5.40984,4.50716 11.18409,5.91085 2.29516,0.55794 3.67796,2.61499 6.00067,8.92665 3.78942,10.29728 3.49244,13.76488 -1.41238,16.49151 -2.94437,1.63681 -5.51337,1.92282 -11.56322,1.28738 -9.4965,-0.99746 -10.51811,-0.70064 -10.51811,3.05595 0,1.72111 -1.97941,4.97705 -4.73039,7.78105 -2.60171,2.65186 -5.58269,6.4587 -6.6244,8.45965 -1.35023,2.59357 -4.13716,4.55081 -9.70692,6.81706 -5.78573,2.35413 -8.11519,4.02929 -8.97794,6.45622 -2.05368,5.77709 -4.02869,15.18396 -4.02869,19.18841 0,6.2757 -4.19143,10.93445 -10.71824,11.91319 -5.77203,0.86559 -5.98001,1.11462 -7.58378,9.08308 -0.70649,3.5102 -1.35994,4.10082 -4.53751,4.10082 -2.6651,0 -4.09077,0.83086 -5.05443,2.94582 -1.35203,2.96743 -7.17482,7.1484 -9.95541,7.1484 -0.82445,0 -2.94269,1.13561 -4.7072,2.52358 -3.63213,2.8571 -6.87595,3.19394 -10.28066,1.06767 -1.83416,-1.1455 -2.93998,-1.02972 -5.18494,0.54268 -2.67572,1.87421 -3.3432,1.75722 -10.7112,-1.87603 l -7.85766,-3.87481 -3.97447,2.93846 c -2.18594,1.6161 -3.97446,3.60528 -3.97446,4.4203 0,0.81502 -1.62163,3.52241 -3.60359,6.01642 -1.98199,2.494 -2.90322,8.85739 -5.74334,12.16053 -4.92973,5.7334 -2.56798,10.27019 -5.04966,10.27019 -2.4041,0 0.11993,-4.53679 -4.0455,-8.00684 -4.14191,-3.45046 -1.22395,-5.36342 -6.4702,-5.40773 -2.93403,-0.0242 -6.02408,-0.73447 -6.86678,-1.57724 -0.84271,-0.84268 -2.8913,-1.53212 -4.55243,-1.53212 -1.95909,0 -3.25212,-0.88668 -3.68018,-2.52358 -0.41987,-1.6056 -1.72111,-2.52358 -3.57712,-2.52358 -1.60445,0 -3.76888,-0.85166 -4.80986,-1.89268 -2.38605,-2.386 -8.3819,-2.50774 -8.3819,-0.17019 0,0.94745 -1.17088,3.211 -2.60193,5.0303 -2.59689,3.30145 -2.62825,3.30629 -16.08783,2.5149 -10.57928,-0.62201 -14.77768,-1.43885 -19.4794,-3.78981 -3.29642,-1.6482 -5.9935,-3.81505 -5.9935,-4.815 0,-1.00004 -2.62339,-3.35565 -5.82974,-5.23471 -4.78355,-2.8034 -6.25233,-3.15256 -8.18453,-1.94588 -3.2641,2.03845 -8.08367,1.83838 -9.95223,-0.41306 -0.85981,-1.03598 -3.91031,-2.50632 -6.7789,-3.26733 -2.8686,-0.76101 -6.35124,-2.40437 -7.73921,-3.65203 -2.97591,-2.67489 -12.48693,-7.60022 -14.67641,-7.60022 -0.84048,0 -2.42458,0.77979 -3.52019,1.7328 -1.09563,0.9531 -4.02656,2.09669 -6.51317,2.54124 -3.9631,0.70862 -4.69524,0.42629 -5.93165,-2.28737 -1.39333,-3.05798 -9.48454,-6.46622 -11.86232,-4.99669 -0.60581,0.3744 -1.03862,4.75362 -0.96179,9.73153 0.0768,4.97792 -0.0526,11.8898 -0.28752,15.35973 l -0.42722,6.30895 -6.62039,-0.4062 c -5.47041,-0.33553 -6.7723,-0.0101 -7.49486,1.89269 -0.48096,1.26441 -2.18222,3.33375 -3.78058,4.59857 -2.25213,1.78225 -2.9061,3.56067 -2.9061,7.90335 0,3.08189 -0.67794,6.6891 -1.50652,8.0159 -1.42045,2.27455 -1.72676,2.29605 -5.36261,0.37773 -2.12085,-1.11896 -6.04832,-2.1616 -8.7277,-2.31695 -2.67939,-0.15535 -5.38962,-0.80048 -6.02271,-1.4335 -0.69361,-0.69368 -3.16656,0.76616 -6.22218,3.67282 -5.57842,5.30669 -6.57548,5.56197 -11.42646,2.92584 z m 13.49703,-9.77332 c 0.86693,-2.71376 1.71894,-2.75343 5.29814,-0.2464 1.54042,1.07888 4.93163,2.15332 7.53606,2.38751 2.60442,0.23429 5.9223,0.8135 7.37306,1.28733 2.41535,0.78877 2.64527,0.3638 2.72698,-5.0406 0.0672,-4.45059 0.85463,-6.72353 3.20157,-9.24257 1.7118,-1.83727 3.79998,-4.67488 4.6404,-6.30592 1.3662,-2.65138 2.10978,-2.8783 7.02059,-2.14182 4.73843,0.71054 5.50427,0.51138 5.57789,-1.45075 0.47302,-12.60852 2.21132,-28.27733 3.25234,-29.31604 1.91919,-1.91489 14.71247,2.44424 15.44994,5.2643 0.71546,2.73596 5.68589,2.94269 7.85684,0.32685 0.86393,-1.04093 3.50746,-1.89269 5.8745,-1.89269 4.88098,0 16.16352,5.25561 17.2259,8.02408 0.38671,1.00772 2.56425,2.24104 4.839,2.74061 2.27474,0.49967 6.32472,2.04935 8.99992,3.44368 3.62815,1.89107 5.22791,2.17149 6.29606,1.10331 0.78761,-0.78766 2.7776,-1.43198 4.42222,-1.43198 3.37217,0 13.48582,6.49105 14.58773,9.36258 1.57001,4.09133 9.89663,6.72363 22.79263,7.20523 l 12.48502,0.46636 2.46472,-4.73172 c 2.18692,-4.19843 3.00225,-4.73171 7.23368,-4.73171 2.69975,0 5.45052,0.82117 6.33975,1.89269 0.86393,1.04092 2.90081,1.89268 4.52638,1.89268 1.70464,0 3.55168,1.11381 4.36399,2.63159 0.77463,1.44743 1.7183,2.3218 2.09705,1.94306 0.37875,-0.37874 2.36152,0.17645 4.40613,1.23373 2.07886,1.07504 5.20643,1.61912 7.09533,1.23433 4.49986,-0.91657 7.133,1.35405 8.66007,7.46788 l 1.26065,5.04716 2.15281,-7.1594 c 1.18405,-3.93769 3.82848,-9.2679 5.87654,-11.84508 2.04805,-2.57708 3.72371,-5.4363 3.72371,-6.35377 0,-2.62997 6.61531,-8.07919 9.80794,-8.07919 1.59162,0 5.81685,1.48114 9.3894,3.29155 6.1206,3.10148 6.69001,3.17659 9.865,1.30106 2.94429,-1.73925 3.67178,-1.76156 5.76499,-0.17715 3.27526,2.47916 4.63964,2.34188 8.7342,-0.87892 1.93851,-1.52485 4.56193,-2.84892 5.8298,-2.94229 2.84507,-0.20956 7.06994,-3.90943 8.07296,-7.06956 0.50557,-1.59298 1.94303,-2.35723 4.43356,-2.35723 3.32959,0 3.76407,-0.49179 4.49996,-5.09379 0.94933,-5.93668 4.25345,-8.78589 10.18887,-8.78589 3.26746,0 4.49516,-0.75817 6.02819,-3.7227 1.05879,-2.04751 1.92509,-5.16228 1.92509,-6.92175 0,-8.57351 5.10947,-23.1099 8.51522,-24.22572 8.40932,-2.75515 13.05373,-5.19698 13.69593,-7.20076 0.40977,-1.27848 3.24526,-4.86067 6.30111,-7.96039 3.46579,-3.51558 5.55608,-6.77802 5.55608,-8.67175 0,-4.15531 2.98523,-5.31937 12.6179,-4.92025 9.4888,0.39318 12.11918,-0.13188 13.06969,-2.60891 1.04884,-2.73323 -4.25534,-17.14715 -6.59374,-17.91824 -9.06741,-2.98999 -11.88804,-5.38317 -14.86639,-12.61335 -1.66158,-4.03364 -2.75383,-8.41934 -2.42724,-9.74601 0.91105,-3.70089 -1.35269,-6.93208 -4.31401,-6.15767 -1.40075,0.3663 -3.34047,0.007 -4.31049,-0.79773 -0.97001,-0.80503 -3.51843,-1.96696 -5.66314,-2.58205 -3.18166,-0.9125 -4.20334,-0.68448 -5.55041,1.23873 -1.55443,2.21925 -1.93105,2.05967 -6.44064,-2.72889 -3.44102,-3.65389 -5.50362,-4.89928 -7.32519,-4.42292 -3.39651,0.8882 -8.91995,-1.31698 -8.2158,-3.2801 0.79922,-2.22814 -1.38017,-5.98574 -3.47168,-5.98574 -0.96979,0 -2.15069,1.27756 -2.62421,2.83903 -1.29169,4.25946 -5.7019,8.51709 -8.82233,8.51709 -1.52038,0 -4.20805,-1.13562 -5.97257,-2.52358 -1.7645,-1.38797 -3.77286,-2.52359 -4.46299,-2.52359 -0.69013,0 -1.88523,-1.80849 -2.65578,-4.01889 -1.74947,-5.01856 -4.91477,-8.61193 -6.91117,-7.84583 -2.12036,0.81365 -7.39666,-5.11462 -6.87494,-7.72443 0.25366,-1.2689 3.17847,-3.17327 7.1406,-4.64929 6.23859,-2.32412 6.57162,-2.65402 4.73171,-4.6871 -1.08859,-1.20287 -1.97923,-3.38637 -1.97923,-4.85223 0,-3.70878 -2.02706,-4.58051 -4.02345,-1.73029 -1.36072,1.94272 -3.55266,2.45519 -11.7579,2.749 -13.70555,0.49073 -15.76341,0.24717 -15.76341,-1.8657 0,-2.12951 -1.43051,-3.1708 -5.35787,-3.90008 -1.56407,-0.29043 -4.0941,-1.96166 -5.62227,-3.71384 -1.52818,-1.75217 -3.39353,-3.18577 -4.14522,-3.18577 -0.75169,0 -2.62429,-0.80851 -4.16133,-1.79669 -4.46008,-2.86741 -17.68271,-5.90212 -19.17756,-4.4014 -0.86934,0.87275 -0.3927,1.9762 1.48037,3.42719 1.5194,1.17701 3.12354,3.62624 3.56476,5.44275 0.44123,1.81651 2.49587,4.5549 4.56587,6.08532 2.99121,2.2115 3.68389,3.57832 3.37509,6.65979 -0.34311,3.42378 -1.05259,4.05541 -6.0666,5.40094 -9.25604,2.48388 -12.6179,4.22496 -12.6179,6.53474 0,2.39942 -7.26609,10.50107 -9.41805,10.50107 -0.74375,0 -3.46773,-1.43751 -6.05333,-3.19446 -3.59709,-2.44429 -5.03935,-4.5379 -6.14158,-8.91524 -0.88179,-3.50191 -2.57875,-6.46658 -4.37517,-7.64364 -1.61405,-1.05757 -3.27422,-2.99275 -3.68925,-4.30042 -0.41503,-1.30766 -2.27737,-3.1074 -4.13853,-3.99943 -1.86116,-0.89203 -4.14486,-3.2095 -5.07489,-5.14995 -1.42656,-2.97644 -1.99312,-3.27732 -3.62342,-1.92428 -1.62309,1.34703 -2.51574,0.95099 -5.57583,-2.47384 -2.00384,-2.2427 -3.64336,-5.15381 -3.64336,-6.46914 0,-2.74425 6.40376,-8.55368 12.02653,-10.91033 2.55042,-1.06894 3.89816,-2.57565 4.04475,-4.52182 0.12088,-1.60528 0.86498,-3.13373 1.65345,-3.39656 0.78847,-0.26282 -0.72104,-2.6844 -3.35449,-5.38129 -5.29566,-5.42326 -9.93723,-6.40815 -11.21576,-2.37986 -0.96367,3.03626 -2.11003,3.1285 -7.06122,0.56813 -3.60679,-1.86514 -3.95846,-1.80647 -7.61492,1.27023 -3.93605,3.31197 -6.88978,3.18844 -5.57676,-0.23323 1.26831,-3.30516 -1.7419,-5.52108 -6.33065,-4.66023 -3.86915,0.72586 -4.33022,0.43119 -6.75141,-4.31476 -2.41781,-4.73929 -2.89544,-5.04567 -6.86227,-4.40194 -2.80671,0.45547 -5.33248,-0.008 -7.39174,-1.35775 -1.72049,-1.12731 -6.4195,-2.90694 -10.44225,-3.95473 -6.65161,-1.73253 -7.51904,-1.71962 -9.57662,0.14246 -2.84407,2.57386 -4.94511,1.36172 -4.94511,-2.85291 0,-1.95236 -1.81268,-5.24895 -4.55572,-8.28517 -3.86076,-4.2734 -4.45089,-5.6887 -3.86846,-9.27778 0.72387,-4.46063 -0.71671,-6.37116 -4.35383,-5.77415 -1.12904,0.18533 -2.39819,-0.56309 -2.82032,-1.66314 -0.59827,-1.5591 -1.31116,-1.70914 -3.23323,-0.68048 -1.63786,0.87656 -2.72826,0.89482 -3.24766,0.0544 -0.99025,-1.60227 -6.94196,-1.66904 -6.94196,-0.0779 0,0.65302 0.47042,1.47806 1.04538,1.8334 0.57496,0.35535 0.39088,3.93765 -0.40908,7.96066 l -1.45448,7.31458 -6.21532,0.3549 c -4.9266,0.28133 -6.78107,1.0418 -8.94394,3.66767 l -2.72866,3.31275 -6.73477,-2.448 c -6.57894,-2.39137 -6.73125,-2.55874 -6.58236,-7.23346 0.14117,-4.43216 -0.0684,-4.73002 -2.83903,-4.03464 -3.43888,0.8631 -3.53926,0.50414 -1.46387,-5.23528 1.41422,-3.91093 1.27919,-4.45483 -1.8194,-7.32799 -2.61574,-2.42546 -4.18837,-2.93524 -7.19808,-2.33329 -2.11811,0.42362 -5.57612,0.0557 -7.68448,-0.81762 -4.28267,-1.77394 -4.35395,-1.74552 -5.57344,2.22176 -0.71009,2.3101 -0.38666,2.83903 1.73593,2.83903 1.76742,0 2.60862,0.81377 2.60862,2.52358 0,1.68239 0.8412,2.52358 2.52358,2.52358 1.95794,0 2.52358,0.8412 2.52358,3.75297 0,2.89137 -0.86654,4.20107 -3.77448,5.70482 -2.15378,1.11377 -5.08256,1.62357 -6.82089,1.18727 -2.3596,-0.59221 -3.23461,-0.17156 -3.88128,1.86591 -0.53754,1.6936 -1.90246,2.63051 -3.83222,2.63051 -1.64853,0 -5.02189,1.19453 -7.49635,2.6545 -2.47447,1.45997 -5.42511,2.29912 -6.55698,1.86478 -3.38279,-1.29809 -9.27688,2.02041 -9.27688,5.22308 0,3.61484 -5.7718,7.70279 -7.8879,5.5867 -1.63441,-1.63442 -6.34344,-1.93891 -7.77934,-0.50302 -0.52049,0.52049 -2.46049,1.05256 -4.31111,1.18237 -9.22246,0.64692 -9.65847,0.86763 -10.06684,5.09597 -0.51924,5.37618 -6.48751,9.97437 -10.2988,7.93462 -1.4063,-0.75261 -2.55689,-1.98575 -2.55689,-2.74029 0,-0.8996 -0.65158,-0.83113 -1.89268,0.19889 -1.04098,0.86393 -1.89269,2.85456 -1.89269,4.42361 0,3.33284 -4.78312,5.30341 -5.88746,2.42554 -0.97706,-2.54617 -2.94507,-0.91808 -2.94507,2.43639 0,4.10194 -2.36807,5.85595 -7.90606,5.85595 -6.32734,0 -9.75902,1.91136 -9.75902,5.43551 0,1.92222 -1.38352,3.56823 -4.33543,5.15793 -4.27352,2.30144 -4.38407,2.29653 -7.7409,-0.34396 -4.52856,-3.56217 -7.87596,-3.37732 -12.09846,0.6681 -2.59204,2.48333 -3.91205,3.00004 -5.11621,2.00274 -1.0048,-0.83221 -3.58207,-0.98519 -6.76726,-0.40169 -6.05449,1.10913 -8.1044,2.20129 -8.1044,4.31795 0,0.8504 -1.71111,2.55694 -3.80246,3.79234 -2.09135,1.23539 -4.61751,4.19684 -5.61367,6.581 -0.99616,2.38416 -2.40798,4.33484 -3.13738,4.33484 -0.72941,0 -1.33487,2.12926 -1.3455,4.73171 -0.0262,6.39613 -1.52172,8.69776 -3.83814,5.90665 -2.22823,-2.68486 -5.03309,-10.78548 -4.20079,-12.13217 0.35004,-0.56637 -0.53268,-1.02978 -1.96161,-1.02978 -1.93005,0 -2.59805,-0.81105 -2.59805,-3.15447 0,-4.67267 -3.38423,-3.93604 -4.09267,0.89083 -0.44848,3.05571 0.28389,5.25682 2.99384,8.99778 2.44416,3.37409 3.35949,5.86115 2.87196,7.80361 -0.94027,3.74634 3.94935,11.20171 8.93713,13.62674 7.00128,3.40398 14.52555,9.6644 14.52555,12.08572 0,1.30937 0.85171,2.7075 1.89269,3.10697 2.74032,1.05156 2.33276,4.07711 -1.26179,9.36698 -1.73497,2.55321 -3.15448,5.75139 -3.15448,7.10702 0,1.35563 -1.27756,3.83524 -2.83903,5.51025 l -2.83903,3.04544 4.73172,4.10945 c 3.13029,2.71862 4.73171,5.18627 4.73171,7.29114 0,1.74994 0.85171,3.88857 1.89269,4.7525 1.04097,0.86393 1.89268,2.91597 1.89268,4.56007 0,1.64411 1.13561,3.69849 2.52358,4.56529 1.82078,1.13708 2.52358,2.94252 2.52358,6.48278 0,4.15747 0.84098,5.70077 5.50711,10.10625 3.02892,2.85971 5.76624,6.02998 6.08295,7.04504 0.3911,1.25346 2.64841,1.93202 7.03596,2.11503 7.12472,0.29719 14.18053,4.36078 14.18053,8.16688 0,1.20423 1.41952,3.8765 3.15448,5.93837 1.73496,2.06189 3.15448,4.3567 3.15448,5.09957 0,0.7429 1.10682,1.94306 2.4596,2.66704 1.35278,0.72399 3.20234,2.87323 4.11014,4.7761 1.09447,2.29417 2.80668,3.59336 5.08217,3.85625 4.23475,0.48925 12.32211,9.5273 12.32211,13.77065 0,1.64316 1.54216,4.41677 3.42703,6.1636 3.02733,2.80571 3.59539,2.94582 4.87081,1.20152 0.79408,-1.08594 2.16589,-1.97445 3.04844,-1.97445 2.72891,0 10.25118,5.2437 9.70251,6.7635 -0.90824,2.51591 1.65304,5.85188 4.54685,5.92224 2.13372,0.0515 3.66252,1.84232 6.46433,7.57074 2.27971,4.66096 4.46043,7.50281 5.75741,7.50281 1.14828,0 3.71975,1.70342 5.71439,3.78537 1.99464,2.08196 4.33088,3.78537 5.19165,3.78537 0.86076,0 2.72936,1.48013 4.15242,3.28934 1.89789,2.41274 2.26936,3.88359 1.39397,5.51917 -1.8678,3.49001 2.06213,5.8965 11.25635,6.89261 4.46309,0.48351 9.22271,1.65526 10.57692,2.60373 2.17599,1.52414 2.95737,1.33053 6.72186,-1.66577 2.3428,-1.86462 4.57707,-4.38396 4.96505,-5.59841 z"
         style="fill:#ffffff;fill-opacity:1;stroke:#ffffff;stroke-width:4.07790518;stroke-miterlimit:4;stroke-dasharray:none;stroke-opacity:1"
         inkscape:connector-curvature="0" />
    </g>
  </g>
</svg>
